<svg width="30" height="31" viewBox="0 0 30 31" fill="none" xmlns="http://www.w3.org/2000/svg">
<g filter="url(#filter0_d_77_239)">
<path fill-rule="evenodd" clip-rule="evenodd" d="M20.0392 15.1244C21.2714 13.584 22.0082 11.6301 22.0082 9.5041C22.0082 4.53127 17.9769 0.5 13.0041 0.5C8.03127 0.5 4 4.53127 4 9.5041C4 14.4769 8.03127 18.5082 13.0041 18.5082C15.1301 18.5082 17.084 17.7714 18.6244 16.5392L24.2921 22.207C24.6828 22.5977 25.3163 22.5977 25.707 22.207C26.0977 21.8163 26.0977 21.1828 25.707 20.7921L20.0392 15.1244ZM13.0041 16.5173C9.1308 16.5173 5.99087 13.3774 5.99087 9.5041C5.99087 5.6308 9.1308 2.49087 13.0041 2.49087C16.8774 2.49087 20.0173 5.6308 20.0173 9.5041C20.0173 13.3774 16.8774 16.5173 13.0041 16.5173Z" fill="#151618"/>
</g>
<defs>
<filter id="filter0_d_77_239" x="0" y="0.5" width="30" height="30" filterUnits="userSpaceOnUse" color-interpolation-filters="sRGB">
<feFlood flood-opacity="0" result="BackgroundImageFix"/>
<feColorMatrix in="SourceAlpha" type="matrix" values="0 0 0 0 0 0 0 0 0 0 0 0 0 0 0 0 0 0 127 0" result="hardAlpha"/>
<feOffset dy="4"/>
<feGaussianBlur stdDeviation="2"/>
<feComposite in2="hardAlpha" operator="out"/>
<feColorMatrix type="matrix" values="0 0 0 0 0 0 0 0 0 0 0 0 0 0 0 0 0 0 0.25 0"/>
<feBlend mode="normal" in2="BackgroundImageFix" result="effect1_dropShadow_77_239"/>
<feBlend mode="normal" in="SourceGraphic" in2="effect1_dropShadow_77_239" result="shape"/>
</filter>
</defs>
</svg>
